<?xml version="1.0" encoding="utf-8"?>
<!-- Generator: Adobe Illustrator 23.1.0, SVG Export Plug-In . SVG Version: 6.00 Build 0)  -->
<svg version="1.1" id="Layer_1" xmlns="http://www.w3.org/2000/svg" xmlns:xlink="http://www.w3.org/1999/xlink" x="0px" y="0px"
	 viewBox="0 0 512 512" style="enable-background:new 0 0 512 512;" xml:space="preserve">
<style type="text/css">
	.st0{fill:#4A1F7C;}
	.st1{fill:#9740FA;}
	.st2{fill:#22CDFB;}
	.st3{fill:#2AFC9C;}
	.st4{fill:#FFF39F;}
	.st5{fill:#FB6769;}
</style>
<rect width="512" height="512"/>
<g>
	<g>
		<path class="st0" d="M239.95,352c-28.68,0-57.36-10.92-79.2-32.75c-43.67-43.67-43.67-114.72,0-158.39
			c21.15-21.15,49.28-32.8,79.2-32.8s58.04,11.65,79.2,32.8c43.67,43.67,43.67,114.72,0,158.39l0,0
			C297.31,341.08,268.63,352,239.95,352z M239.95,160.09c-20.49,0-40.97,7.8-56.57,23.39c-31.19,31.19-31.19,81.95,0,113.14
			c31.19,31.19,81.95,31.19,113.14,0c31.19-31.19,31.19-81.95,0-113.14C280.92,167.89,260.43,160.09,239.95,160.09z"/>
	</g>
</g>
<path class="st0" d="M379.31,356.69l-80-80c-6.25-6.25-16.38-6.25-22.63,0c-6.25,6.25-6.25,16.38,0,22.63l80,80
	c3.13,3.12,7.22,4.69,11.31,4.69c4.1,0,8.19-1.56,11.31-4.69C385.56,373.07,385.56,362.93,379.31,356.69z"/>
<g>
	<path class="st1" d="M307.88,323.88c-4.1,0-8.19-1.56-11.31-4.69l-67.88-67.88c-6.25-6.25-6.25-16.38,0-22.63
		c6.25-6.25,16.38-6.25,22.63,0l67.88,67.88c6.25,6.25,6.25,16.38,0,22.63C316.07,322.32,311.98,323.88,307.88,323.88z"/>
</g>
<g>
	<path class="st2" d="M240,352c-28.68,0-57.36-10.92-79.2-32.75c-6.25-6.25-6.25-16.38,0-22.63c6.25-6.25,16.38-6.25,22.63,0
		c31.19,31.19,81.95,31.19,113.14,0c6.25-6.25,16.38-6.25,22.63,0c6.25,6.25,6.25,16.38,0,22.63C297.36,341.08,268.68,352,240,352z"
		/>
</g>
<g>
	<path class="st3" d="M172.06,323.88c-4.1,0-8.19-1.56-11.31-4.69c-43.67-43.67-43.67-114.72,0-158.39c6.25-6.25,16.38-6.25,22.63,0
		c6.25,6.25,6.25,16.38,0,22.63c-31.19,31.19-31.19,81.95,0,113.14c6.25,6.25,6.25,16.38,0,22.63
		C180.25,322.32,176.16,323.88,172.06,323.88z"/>
</g>
<g>
	<path class="st4" d="M307.88,188.12c-4.1,0-8.19-1.56-11.31-4.69C281.46,168.32,261.37,160,240,160s-41.46,8.32-56.57,23.43
		c-6.25,6.25-16.38,6.25-22.63,0c-6.25-6.25-6.25-16.38,0-22.63c21.15-21.15,49.28-32.8,79.2-32.8s58.04,11.65,79.2,32.8
		c6.25,6.25,6.25,16.38,0,22.63C316.07,186.56,311.98,188.12,307.88,188.12z"/>
</g>
<g>
	<path class="st5" d="M336,256c-8.84,0-16-7.16-16-16c0-21.37-8.32-41.46-23.43-56.57c-6.25-6.25-6.25-16.38,0-22.63
		c6.25-6.25,16.38-6.25,22.63,0c21.15,21.15,32.8,49.28,32.8,79.2C352,248.84,344.84,256,336,256z"/>
</g>
</svg>
